<?xml version="1.0" encoding="utf-8"?>
<!-- Generator: Adobe Illustrator 27.2.0, SVG Export Plug-In . SVG Version: 6.00 Build 0)  -->
<svg version="1.1" id="_x3C_Layer_x3E__copy_4" xmlns="http://www.w3.org/2000/svg" xmlns:xlink="http://www.w3.org/1999/xlink"
	 x="0px" y="0px" viewBox="0 0 792 792" style="enable-background:new 0 0 792 792;" xml:space="preserve">
<style type="text/css">
	.st0{fill:#FFFFFF;}
	.st1{fill:#7BD3F7;}
	.st2{fill:#ED1C24;}
</style>
<path class="st0" d="M712.08,256.32c-17.25-40.78-41.94-77.41-73.39-108.86c-31.45-31.45-68.08-56.14-108.86-73.39
	c-42.23-17.86-87.08-26.92-133.31-26.92c-46.23,0-91.08,9.06-133.31,26.92c-40.78,17.25-77.41,41.94-108.86,73.39
	c-31.45,31.45-56.14,68.08-73.39,108.86c-17.86,42.23-26.92,87.08-26.92,133.31c0,46.23,9.06,91.08,26.92,133.31
	c17.25,40.78,41.94,77.41,73.39,108.86s68.08,56.14,108.86,73.39c42.23,17.86,87.08,26.92,133.31,26.92
	c46.23,0,91.08-9.06,133.31-26.92c40.78-17.25,77.41-41.94,108.86-73.39s56.14-68.08,73.39-108.86
	C729.94,480.72,739,435.86,739,389.63C739,343.4,729.94,298.55,712.08,256.32z M113.37,216.43h566.3
	c16.32,26.62,28.99,55.72,37.32,86.6H76.05C84.37,272.15,97.05,243.05,113.37,216.43z M713.49,419.56l-42.71-10.81l-11.99,42.4
	l-11.99-42.4l-42.71,10.81l30.72-31.59l-30.72-31.58l42.71,10.81l11.99-42.4l11.99,42.4l42.71-10.81l-30.72,31.58L713.49,419.56z
	 M537.58,419.56l-42.71-10.81l-11.99,42.4l-11.99-42.4l-42.71,10.81l30.72-31.59l-30.72-31.58l42.71,10.81l11.99-42.4l11.99,42.4
	l42.71-10.81l-30.72,31.58L537.58,419.56z M361.67,419.56l-42.72-10.81l-11.99,42.4l-12-42.4l-42.71,10.81l30.72-31.59l-30.72-31.58
	l42.71,10.81l12-42.4l11.99,42.4l42.72-10.81l-30.72,31.58L361.67,419.56z M185.75,419.56l-42.72-10.81l-11.99,42.4l-11.99-42.4
	l-42.71,10.81l30.72-31.59l-30.72-31.58l42.71,10.81l11.99-42.4l11.99,42.4l42.72-10.81l-30.72,31.58L185.75,419.56z M679.67,562.84
	h-566.3c-16.32-26.62-28.99-55.72-37.32-86.6h640.94C708.66,507.12,695.99,536.22,679.67,562.84z"/>
<path class="st1" d="M728.21,249.5c-18.13-42.87-44.09-81.37-77.14-114.42c-33.05-33.05-71.55-59.01-114.42-77.14
	c-44.4-18.78-91.55-28.3-140.14-28.3s-95.74,9.52-140.14,28.3c-42.87,18.13-81.37,44.09-114.42,77.14S82.95,206.62,64.82,249.5
	c-18.78,44.4-28.3,91.55-28.3,140.14c0,48.59,9.52,95.74,28.3,140.14c18.13,42.87,44.09,81.37,77.14,114.42
	c33.05,33.05,71.55,59.01,114.42,77.14c44.4,18.78,91.55,28.3,140.14,28.3s95.74-9.52,140.14-28.3
	c42.87-18.13,81.37-44.09,114.42-77.14c33.05-33.05,59.01-71.55,77.14-114.42c18.78-44.4,28.3-91.55,28.3-140.14
	C756.52,341.05,746.99,293.9,728.21,249.5z M712.08,522.95c-17.25,40.78-41.94,77.41-73.39,108.86s-68.08,56.14-108.86,73.39
	c-42.23,17.86-87.08,26.92-133.31,26.92c-46.23,0-91.08-9.06-133.31-26.92c-40.78-17.25-77.41-41.94-108.86-73.39
	S98.2,563.73,80.95,522.95c-17.86-42.23-26.92-87.08-26.92-133.31c0-46.23,9.06-91.08,26.92-133.31
	c17.25-40.78,41.94-77.41,73.39-108.86c31.45-31.45,68.08-56.14,108.86-73.39c42.23-17.86,87.08-26.92,133.31-26.92
	c46.23,0,91.08,9.06,133.31,26.92c40.78,17.25,77.41,41.94,108.86,73.39c31.45,31.45,56.14,68.08,73.39,108.86
	C729.94,298.55,739,343.4,739,389.63C739,435.86,729.94,480.72,712.08,522.95z M716.98,303.03H76.05c8.33-30.88,21-59.98,37.32-86.6
	h566.3C695.99,243.05,708.66,272.15,716.98,303.03z M76.05,476.24h640.94c-8.33,30.88-21,59.98-37.32,86.6h-566.3
	C97.05,536.22,84.37,507.12,76.05,476.24z"/>
<path class="st2" d="M185.75,356.39l-30.72,31.58l30.72,31.59l-42.72-10.81l-11.99,42.4l-11.99-42.4l-42.71,10.81l30.72-31.59
	l-30.72-31.58l42.71,10.81l11.99-42.4l11.99,42.4L185.75,356.39z M318.95,367.2l-11.99-42.4l-12,42.4l-42.71-10.81l30.72,31.58
	l-30.72,31.59l42.71-10.81l12,42.4l11.99-42.4l42.72,10.81l-30.72-31.59l30.72-31.58L318.95,367.2z M494.86,367.2l-11.99-42.4
	l-11.99,42.4l-42.71-10.81l30.72,31.58l-30.72,31.59l42.71-10.81l11.99,42.4l11.99-42.4l42.71,10.81l-30.72-31.59l30.72-31.58
	L494.86,367.2z M713.49,356.39l-42.71,10.81l-11.99-42.4l-11.99,42.4l-42.71-10.81l30.72,31.58l-30.72,31.59l42.71-10.81l11.99,42.4
	l11.99-42.4l42.71,10.81l-30.72-31.59L713.49,356.39z"/>
</svg>
