<?xml version="1.0" encoding="utf-8"?>
<!-- Generator: Adobe Illustrator 24.0.1, SVG Export Plug-In . SVG Version: 6.00 Build 0)  -->
<svg version="1.1" xmlns="http://www.w3.org/2000/svg" xmlns:xlink="http://www.w3.org/1999/xlink" x="0px" y="0px"
	 viewBox="0 0 612 792" style="enable-background:new 0 0 612 792;" xml:space="preserve">
<style type="text/css">
	.st0{fill:#7BD3F7;}
	.st1{fill:#FFFFFF;}
	.st2{fill:#ED1C24;}
</style>
<g>
</g>
<g>
	<g>
		<rect x="19.03" y="268.63" class="st0" width="576" height="64.76"/>
		<rect x="19.03" y="203.86" class="st1" width="576" height="64.76"/>
		<path class="st1" d="M19.03,462.91h576V333.39h-576V462.91z M462.25,373.29l31.94,8.08l8.97-31.71l8.97,31.71l31.94-8.08
			l-22.97,23.62l22.97,23.62l-31.94-8.08l-8.97,31.71l-8.97-31.71l-31.94,8.08l22.97-23.62L462.25,373.29z M330.7,373.29l31.94,8.08
			l8.97-31.71l8.97,31.71l31.94-8.08l-22.97,23.62l22.97,23.62l-31.94-8.08l-8.97,31.71l-8.97-31.71l-31.94,8.08l22.97-23.62
			L330.7,373.29z M199.15,373.29l31.94,8.08l8.97-31.71l8.97,31.71l31.94-8.08L258,396.91l22.97,23.62l-31.94-8.08l-8.97,31.71
			l-8.97-31.71l-31.94,8.08l22.97-23.62L199.15,373.29z M67.6,373.29l31.94,8.08l8.97-31.71l8.97,31.71l31.94-8.08l-22.97,23.62
			l22.97,23.62l-31.94-8.08l-8.97,31.71l-8.97-31.71l-31.94,8.08l22.97-23.62L67.6,373.29z"/>
		<rect x="19.03" y="462.91" class="st0" width="576" height="64.76"/>
		<rect x="19.03" y="527.68" class="st1" width="576" height="64.76"/>
		<polygon class="st2" points="99.54,412.45 108.51,444.15 117.48,412.45 149.42,420.53 126.45,396.91 149.42,373.29 117.48,381.37 
			108.51,349.67 99.54,381.37 67.6,373.29 90.57,396.91 67.6,420.53 		"/>
		<polygon class="st2" points="231.09,412.45 240.06,444.15 249.03,412.45 280.97,420.53 258,396.91 280.97,373.29 249.03,381.37 
			240.06,349.67 231.09,381.37 199.15,373.29 222.12,396.91 199.15,420.53 		"/>
		<polygon class="st2" points="362.64,412.45 371.61,444.15 380.58,412.45 412.52,420.53 389.55,396.91 412.52,373.29 
			380.58,381.37 371.61,349.67 362.64,381.37 330.7,373.29 353.67,396.91 330.7,420.53 		"/>
		<polygon class="st2" points="494.19,412.45 503.16,444.15 512.13,412.45 544.07,420.53 521.1,396.91 544.07,373.29 512.13,381.37 
			503.16,349.67 494.19,381.37 462.25,373.29 485.22,396.91 462.25,420.53 		"/>
	</g>
</g>
</svg>
