<?xml version="1.0" encoding="utf-8"?>
<svg version="1.1" xmlns="http://www.w3.org/2000/svg" xmlns:xlink="http://www.w3.org/1999/xlink"
	 x="0px" y="0px" viewBox="0 0 792 792" style="enable-background:new 0 0 792 792;" xml:space="preserve">
<style type="text/css">
	.st0{fill:#ED1C24;}
	.st1{fill:#FFFFFF;}
	.st2{fill:#7BD3F7;}
</style>
<rect width="792" height="792" fill="#111827"/>
<path class="st0" d="M495.6,387.98l127.48,131.08l-177.26-44.85l-10.98,38.8l-13.54,47.86l-25.26,89.29l-49.78-175.94l-177.26,44.85
	l127.48-131.08L169.01,256.91l177.26,44.86l49.78-175.94l26.19,92.57l12.61,44.57l10.98,38.8l177.26-44.86L495.6,387.98z"/>
<path class="st1" d="M708.49,257.84c-17.05-40.32-41.46-76.53-72.56-107.62c-31.09-31.09-67.3-55.5-107.62-72.56
	C486.56,60,442.22,51.05,396.52,51.05c-45.7,0-90.05,8.95-131.8,26.61c-40.32,17.05-76.53,41.47-107.62,72.56
	c-31.09,31.09-55.5,67.3-72.56,107.62c-17.66,41.75-26.61,86.09-26.61,131.79c0,45.7,8.95,90.05,26.61,131.79
	c17.05,40.32,41.46,76.53,72.56,107.62s67.3,55.5,107.62,72.56c41.75,17.66,86.09,26.61,131.8,26.61c45.7,0,90.05-8.95,131.79-26.61
	c40.32-17.05,76.53-41.46,107.62-72.56s55.5-67.3,72.56-107.62c17.66-41.75,26.61-86.09,26.61-131.79
	C735.1,343.93,726.15,299.59,708.49,257.84z M701.86,509.94c-1.96,4.97-4.03,9.87-6.23,14.72c-1.1,2.42-2.22,4.83-3.37,7.22
	c-3.46,7.17-7.16,14.2-11.12,21.07c-2.63,4.58-5.37,9.09-8.22,13.53c-2.85,4.44-5.79,8.8-8.84,13.09c-1.52,2.14-3.07,4.27-4.65,6.37
	c-3.15,4.21-6.4,8.34-9.74,12.39c-1.67,2.03-3.37,4.03-5.09,6.02c-20.63,23.81-44.62,44.62-71.25,61.69
	c-2.22,1.42-4.46,2.82-6.71,4.19c-49.61,30.14-107.84,47.5-170.13,47.5c-107.59,0-203.09-51.79-262.92-131.79
	c-1.57-2.11-3.12-4.23-4.65-6.37c-3.05-4.29-6-8.65-8.84-13.09c-2.85-4.44-5.59-8.95-8.22-13.53c-3.95-6.87-7.66-13.9-11.12-21.07
	c-1.15-2.39-2.28-4.8-3.37-7.22c-1.41-3.13-2.76-6.29-4.08-9.46c-1.75-4.21-3.42-8.46-5-12.75
	c-12.88-35.18-19.91-73.17-19.91-112.81c0-33.98,5.16-66.75,14.75-97.57c3.2-10.27,6.88-20.33,11.03-30.14
	c7.26-17.17,15.95-33.6,25.91-49.13c4.27-6.66,8.77-13.15,13.49-19.46c3.15-4.21,6.4-8.34,9.74-12.39
	c60.18-72.92,151.25-119.4,253.18-119.4c96.27,0,182.85,41.46,242.87,107.49c7.06,7.77,13.75,15.88,20.05,24.3
	c4.72,6.32,9.23,12.81,13.49,19.46c12.8,19.97,23.5,41.42,31.78,64.03c1.84,5.03,3.56,10.11,5.16,15.24
	c9.59,30.82,14.75,63.59,14.75,97.57C724.62,432.1,716.55,472.69,701.86,509.94z M591.25,304.02l39.02-40.12l24.71-25.4l-34.35,8.69
	l-167.81,42.47l-20.16-71.26h216.71c-10.81-15.93-23.15-30.86-36.95-44.66c-28.05-28.05-60.7-50.06-97.06-65.44
	c-37.63-15.91-77.61-23.98-118.84-23.98s-81.21,8.07-118.84,23.98c-36.35,15.38-69.01,37.39-97.06,65.44
	c-13.8,13.8-26.14,28.73-36.95,44.66h215.76l-20.16,71.26l-167.8-42.47l-34.35-8.69l24.71,25.4l39.02,40.12h-97.47
	c-8.07,27.65-12.17,56.31-12.17,85.62s4.1,57.97,12.17,85.62h94.26l-35.81,36.82l-24.7,25.4l34.35-8.69l167.8-42.46l21.09,74.55
	H143.67c10.81,15.93,23.15,30.86,36.95,44.66c28.05,28.05,60.7,50.06,97.06,65.44c37.63,15.91,77.61,23.98,118.84,23.98
	s81.21-8.07,118.84-23.98c36.35-15.38,69.01-37.39,97.06-65.44c13.8-13.8,26.14-28.73,36.95-44.66H431.72l21.09-74.55l167.81,42.46
	l34.35,8.69l-24.7-25.4l-35.81-36.82h95.21c8.07-27.65,12.17-56.31,12.17-85.62s-4.1-57.97-12.17-85.62H591.25z M623.08,519.06
	l-177.26-44.85l-10.98,38.8l-13.54,47.86h0l-25.26,89.29l-49.78-175.94l-177.26,44.85l127.48-131.08L169.01,256.91l177.26,44.86
	l49.78-175.94l26.19,92.57l12.61,44.57l10.98,38.8l177.26-44.86L495.6,387.98L623.08,519.06z"/>
<path class="st2" d="M728.21,249.5c-18.13-42.87-44.09-81.37-77.14-114.42c-33.05-33.05-71.55-59-114.42-77.14
	c-44.4-18.78-91.55-28.3-140.14-28.3c-48.59,0-95.73,9.52-140.14,28.3c-42.87,18.13-81.37,44.09-114.42,77.14
	c-33.05,33.05-59,71.55-77.14,114.42c-18.78,44.4-28.3,91.55-28.3,140.14c0,48.59,9.52,95.73,28.3,140.14
	c18.13,42.87,44.09,81.37,77.14,114.42c33.05,33.05,71.55,59,114.42,77.14c44.4,18.78,91.55,28.3,140.14,28.3
	c48.59,0,95.73-9.52,140.14-28.3c42.87-18.13,81.37-44.09,114.42-77.14c33.05-33.05,59-71.55,77.14-114.42
	c18.78-44.4,28.3-91.55,28.3-140.14C756.52,341.05,746.99,293.9,728.21,249.5z M708.49,521.43
	c-17.05,40.32-41.46,76.53-72.56,107.62s-67.3,55.5-107.62,72.56c-41.75,17.66-86.09,26.61-131.79,26.61
	c-45.7,0-90.05-8.95-131.8-26.61c-40.32-17.05-76.53-41.46-107.62-72.56s-55.5-67.3-72.56-107.62
	c-17.66-41.75-26.61-86.09-26.61-131.79c0-45.7,8.95-90.05,26.61-131.79c17.05-40.32,41.46-76.53,72.56-107.62
	c31.09-31.09,67.3-55.5,107.62-72.56c41.75-17.66,86.09-26.61,131.8-26.61c45.7,0,90.05,8.95,131.79,26.61
	c40.32,17.05,76.53,41.47,107.62,72.56c31.09,31.09,55.5,67.3,72.56,107.62c17.66,41.75,26.61,86.09,26.61,131.79
	C735.1,435.34,726.15,479.68,708.49,521.43z M709.87,292.07c-1.6-5.14-3.32-10.22-5.16-15.24c-8.28-22.61-18.98-44.06-31.78-64.03
	c-4.27-6.66-8.77-13.15-13.49-19.46c-6.3-8.42-12.99-16.53-20.05-24.3c-60.02-66.04-146.6-107.49-242.87-107.49
	c-101.93,0-193,46.48-253.18,119.4c-3.34,4.05-6.59,8.18-9.74,12.39c-4.72,6.32-9.23,12.81-13.49,19.46
	c-9.96,15.53-18.64,31.96-25.91,49.13c-4.15,9.81-7.84,19.87-11.03,30.14c-9.59,30.82-14.75,63.59-14.75,97.57
	c0,39.64,7.03,77.64,19.91,112.81c1.57,4.3,3.25,8.54,5,12.75c1.32,3.18,2.66,6.34,4.08,9.46c1.1,2.42,2.22,4.83,3.37,7.22
	c3.46,7.17,7.16,14.2,11.12,21.07c2.63,4.58,5.37,9.09,8.22,13.53c2.85,4.44,5.79,8.8,8.84,13.09c1.52,2.14,3.07,4.27,4.65,6.37
	c59.83,80.01,155.33,131.79,262.92,131.79c62.29,0,120.52-17.36,170.13-47.5c2.25-1.37,4.49-2.77,6.71-4.19
	c26.63-17.07,50.62-37.88,71.25-61.69c1.72-1.98,3.41-3.99,5.09-6.02c3.34-4.05,6.59-8.18,9.74-12.39c1.57-2.11,3.12-4.23,4.65-6.37
	c3.05-4.29,6-8.65,8.84-13.09c2.84-4.44,5.59-8.95,8.22-13.53c3.95-6.87,7.66-13.9,11.12-21.07c1.15-2.39,2.28-4.8,3.37-7.22
	c2.19-4.84,4.27-9.75,6.23-14.72c14.69-37.25,22.76-77.84,22.76-120.31C724.62,355.66,719.45,322.89,709.87,292.07z M689.66,475.25
	h-95.21l35.81,36.82l24.7,25.4l-34.35-8.69l-167.81-42.46l-21.09,74.55h217.64c-10.81,15.93-23.15,30.86-36.95,44.66
	c-28.05,28.05-60.7,50.06-97.06,65.44c-37.63,15.91-77.61,23.98-118.84,23.98s-81.21-8.07-118.84-23.98
	c-36.35-15.38-69.01-37.39-97.06-65.44c-13.8-13.8-26.14-28.73-36.95-44.66h216.69l-21.09-74.55l-167.8,42.46l-34.35,8.69l24.7-25.4
	l35.81-36.82h-94.26C95.3,447.6,91.2,418.94,91.2,389.63s4.1-57.97,12.17-85.62h97.47l-39.02-40.12l-24.71-25.4l34.35,8.69
	l167.8,42.47l20.16-71.26H143.67c10.81-15.93,23.15-30.86,36.95-44.66c28.05-28.05,60.7-50.06,97.06-65.44
	c37.63-15.91,77.61-23.98,118.84-23.98s81.21,8.07,118.84,23.98c36.35,15.38,69.01,37.39,97.06,65.44
	c13.8,13.8,26.14,28.73,36.95,44.66H432.65l20.16,71.26l167.81-42.47l34.35-8.69l-24.71,25.4l-39.02,40.12h98.42
	c8.07,27.65,12.17,56.31,12.17,85.62S697.74,447.6,689.66,475.25z"/>
</svg>
